<?xml version="1.0" standalone="no"?>
<svg viewBox="0 0 200 200" xmlns="http://www.w3.org/2000/svg">
  <path fill="#EEC5FF" d="M49.6,-75.2C63.9,-68.1,74.8,-53.6,79,-38C83.1,-22.3,80.7,-5.5,77.7,10.8C74.7,27.1,71.3,43,62.8,56.3C54.2,69.6,40.5,80.3,25.4,83.2C10.4,86.1,-6,81.2,-21.6,75.6C-37.2,70.1,-52.1,64.1,-62.9,53.5C-73.7,42.9,-80.4,27.7,-83.8,11.4C-87.2,-4.9,-87.2,-22.4,-81.1,-37.6C-75,-52.8,-62.8,-65.7,-48.2,-72.7C-33.7,-79.7,-16.8,-80.8,0.4,-81.5C17.7,-82.1,35.4,-82.3,49.6,-75.2Z" transform="translate(100 100)" />
</svg>
